<mxfile host="Electron" modified="2023-09-09T12:07:33.993Z" agent="Mozilla/5.0 (Macintosh; Intel Mac OS X 10_15_7) AppleWebKit/537.36 (KHTML, like Gecko) draw.io/21.6.8 Chrome/114.0.5735.289 Electron/25.5.0 Safari/537.36" etag="uY5gwmvpNdRBu5aKiWv9" version="21.6.8" type="device">
  <diagram name="Page-1" id="hUU9RAJwVkape8eqO0wX">
    <mxGraphModel dx="984" dy="747" grid="1" gridSize="10" guides="1" tooltips="1" connect="1" arrows="1" fold="1" page="1" pageScale="1" pageWidth="827" pageHeight="1169" math="0" shadow="0">
      <root>
        <mxCell id="0" />
        <mxCell id="1" parent="0" />
        <mxCell id="32D1dnVUqQnKbzPbs04d-16" style="edgeStyle=orthogonalEdgeStyle;rounded=0;orthogonalLoop=1;jettySize=auto;html=1;exitX=1;exitY=0.5;exitDx=0;exitDy=0;entryX=0;entryY=0.5;entryDx=0;entryDy=0;" edge="1" parent="1" source="32D1dnVUqQnKbzPbs04d-1" target="32D1dnVUqQnKbzPbs04d-2">
          <mxGeometry relative="1" as="geometry" />
        </mxCell>
        <mxCell id="32D1dnVUqQnKbzPbs04d-17" value="reset, exec, &lt;br&gt;save" style="edgeLabel;html=1;align=center;verticalAlign=middle;resizable=0;points=[];" vertex="1" connectable="0" parent="32D1dnVUqQnKbzPbs04d-16">
          <mxGeometry x="-0.0222" y="2" relative="1" as="geometry">
            <mxPoint as="offset" />
          </mxGeometry>
        </mxCell>
        <mxCell id="32D1dnVUqQnKbzPbs04d-18" value="delete" style="edgeStyle=orthogonalEdgeStyle;rounded=0;orthogonalLoop=1;jettySize=auto;html=1;exitX=1;exitY=0.75;exitDx=0;exitDy=0;entryX=0;entryY=0.25;entryDx=0;entryDy=0;" edge="1" parent="1" source="32D1dnVUqQnKbzPbs04d-1" target="32D1dnVUqQnKbzPbs04d-3">
          <mxGeometry relative="1" as="geometry" />
        </mxCell>
        <mxCell id="32D1dnVUqQnKbzPbs04d-1" value="debounce&lt;br&gt;(edge-detection)" style="rounded=0;whiteSpace=wrap;html=1;" vertex="1" parent="1">
          <mxGeometry x="220" y="260" width="100" height="180" as="geometry" />
        </mxCell>
        <mxCell id="32D1dnVUqQnKbzPbs04d-22" value="reset,&lt;br&gt;write enable,&lt;br&gt;read enable" style="edgeStyle=orthogonalEdgeStyle;rounded=0;orthogonalLoop=1;jettySize=auto;html=1;exitX=0.172;exitY=0.994;exitDx=0;exitDy=0;entryX=0.167;entryY=0;entryDx=0;entryDy=0;entryPerimeter=0;exitPerimeter=0;" edge="1" parent="1" source="32D1dnVUqQnKbzPbs04d-2" target="32D1dnVUqQnKbzPbs04d-3">
          <mxGeometry x="0.0149" relative="1" as="geometry">
            <mxPoint as="offset" />
          </mxGeometry>
        </mxCell>
        <mxCell id="32D1dnVUqQnKbzPbs04d-26" value="timer enable" style="edgeStyle=orthogonalEdgeStyle;rounded=0;orthogonalLoop=1;jettySize=auto;html=1;exitX=0.5;exitY=0;exitDx=0;exitDy=0;entryX=0.5;entryY=1;entryDx=0;entryDy=0;" edge="1" parent="1" source="32D1dnVUqQnKbzPbs04d-2" target="32D1dnVUqQnKbzPbs04d-24">
          <mxGeometry relative="1" as="geometry" />
        </mxCell>
        <mxCell id="32D1dnVUqQnKbzPbs04d-33" style="edgeStyle=orthogonalEdgeStyle;rounded=0;orthogonalLoop=1;jettySize=auto;html=1;exitX=1;exitY=0.25;exitDx=0;exitDy=0;entryX=0;entryY=0.25;entryDx=0;entryDy=0;" edge="1" parent="1" source="32D1dnVUqQnKbzPbs04d-2" target="32D1dnVUqQnKbzPbs04d-5">
          <mxGeometry relative="1" as="geometry">
            <Array as="points">
              <mxPoint x="620" y="310" />
            </Array>
          </mxGeometry>
        </mxCell>
        <mxCell id="32D1dnVUqQnKbzPbs04d-35" style="edgeStyle=orthogonalEdgeStyle;rounded=0;orthogonalLoop=1;jettySize=auto;html=1;exitX=1;exitY=0.25;exitDx=0;exitDy=0;entryX=0;entryY=0.75;entryDx=0;entryDy=0;" edge="1" parent="1" source="32D1dnVUqQnKbzPbs04d-2" target="32D1dnVUqQnKbzPbs04d-4">
          <mxGeometry relative="1" as="geometry">
            <Array as="points">
              <mxPoint x="620" y="310" />
              <mxPoint x="710" y="310" />
              <mxPoint x="710" y="215" />
            </Array>
          </mxGeometry>
        </mxCell>
        <mxCell id="32D1dnVUqQnKbzPbs04d-36" style="edgeStyle=orthogonalEdgeStyle;rounded=0;orthogonalLoop=1;jettySize=auto;html=1;exitX=1;exitY=0.25;exitDx=0;exitDy=0;entryX=0;entryY=0.5;entryDx=0;entryDy=0;" edge="1" parent="1" source="32D1dnVUqQnKbzPbs04d-2" target="32D1dnVUqQnKbzPbs04d-6">
          <mxGeometry relative="1" as="geometry">
            <mxPoint x="720" y="380" as="targetPoint" />
            <Array as="points">
              <mxPoint x="620" y="310" />
              <mxPoint x="710" y="310" />
              <mxPoint x="710" y="420" />
            </Array>
          </mxGeometry>
        </mxCell>
        <mxCell id="32D1dnVUqQnKbzPbs04d-37" value="enable,&lt;br&gt;instruction[4:0]" style="edgeLabel;html=1;align=center;verticalAlign=middle;resizable=0;points=[];" vertex="1" connectable="0" parent="32D1dnVUqQnKbzPbs04d-36">
          <mxGeometry x="-0.8024" y="2" relative="1" as="geometry">
            <mxPoint x="27" y="1" as="offset" />
          </mxGeometry>
        </mxCell>
        <mxCell id="32D1dnVUqQnKbzPbs04d-2" value="FSM" style="rounded=0;whiteSpace=wrap;html=1;" vertex="1" parent="1">
          <mxGeometry x="440" y="265" width="180" height="170" as="geometry" />
        </mxCell>
        <mxCell id="32D1dnVUqQnKbzPbs04d-23" value="full,&lt;br&gt;empty" style="edgeStyle=orthogonalEdgeStyle;rounded=0;orthogonalLoop=1;jettySize=auto;html=1;exitX=0.883;exitY=-0.06;exitDx=0;exitDy=0;entryX=0.883;entryY=1.018;entryDx=0;entryDy=0;exitPerimeter=0;entryPerimeter=0;" edge="1" parent="1" source="32D1dnVUqQnKbzPbs04d-3" target="32D1dnVUqQnKbzPbs04d-2">
          <mxGeometry relative="1" as="geometry" />
        </mxCell>
        <mxCell id="32D1dnVUqQnKbzPbs04d-38" value="data_out[4:0]" style="edgeStyle=orthogonalEdgeStyle;rounded=0;orthogonalLoop=1;jettySize=auto;html=1;exitX=0.561;exitY=-0.06;exitDx=0;exitDy=0;entryX=0.567;entryY=0.994;entryDx=0;entryDy=0;exitPerimeter=0;entryPerimeter=0;" edge="1" parent="1" source="32D1dnVUqQnKbzPbs04d-3" target="32D1dnVUqQnKbzPbs04d-2">
          <mxGeometry x="0.0154" relative="1" as="geometry">
            <mxPoint as="offset" />
          </mxGeometry>
        </mxCell>
        <mxCell id="32D1dnVUqQnKbzPbs04d-3" value="fifo (BRAM)" style="rounded=0;whiteSpace=wrap;html=1;" vertex="1" parent="1">
          <mxGeometry x="440" y="500" width="180" height="50" as="geometry" />
        </mxCell>
        <mxCell id="32D1dnVUqQnKbzPbs04d-41" style="edgeStyle=orthogonalEdgeStyle;rounded=0;orthogonalLoop=1;jettySize=auto;html=1;exitX=1;exitY=0.5;exitDx=0;exitDy=0;" edge="1" parent="1" source="32D1dnVUqQnKbzPbs04d-4" target="32D1dnVUqQnKbzPbs04d-44">
          <mxGeometry relative="1" as="geometry">
            <mxPoint x="1030" y="200" as="targetPoint" />
          </mxGeometry>
        </mxCell>
        <mxCell id="32D1dnVUqQnKbzPbs04d-4" value="torque_display" style="rounded=0;whiteSpace=wrap;html=1;" vertex="1" parent="1">
          <mxGeometry x="840" y="170" width="120" height="60" as="geometry" />
        </mxCell>
        <mxCell id="32D1dnVUqQnKbzPbs04d-52" style="edgeStyle=orthogonalEdgeStyle;rounded=0;orthogonalLoop=1;jettySize=auto;html=1;exitX=0.992;exitY=0.15;exitDx=0;exitDy=0;exitPerimeter=0;" edge="1" parent="1" source="32D1dnVUqQnKbzPbs04d-5" target="32D1dnVUqQnKbzPbs04d-45">
          <mxGeometry relative="1" as="geometry" />
        </mxCell>
        <mxCell id="32D1dnVUqQnKbzPbs04d-53" style="edgeStyle=orthogonalEdgeStyle;rounded=0;orthogonalLoop=1;jettySize=auto;html=1;exitX=1;exitY=0.25;exitDx=0;exitDy=0;" edge="1" parent="1" source="32D1dnVUqQnKbzPbs04d-5" target="32D1dnVUqQnKbzPbs04d-46">
          <mxGeometry relative="1" as="geometry" />
        </mxCell>
        <mxCell id="32D1dnVUqQnKbzPbs04d-54" style="edgeStyle=orthogonalEdgeStyle;rounded=0;orthogonalLoop=1;jettySize=auto;html=1;exitX=1;exitY=0.5;exitDx=0;exitDy=0;entryX=0.025;entryY=0.4;entryDx=0;entryDy=0;entryPerimeter=0;" edge="1" parent="1" source="32D1dnVUqQnKbzPbs04d-5" target="32D1dnVUqQnKbzPbs04d-47">
          <mxGeometry relative="1" as="geometry" />
        </mxCell>
        <mxCell id="32D1dnVUqQnKbzPbs04d-55" style="edgeStyle=orthogonalEdgeStyle;rounded=0;orthogonalLoop=1;jettySize=auto;html=1;exitX=1;exitY=0.75;exitDx=0;exitDy=0;entryX=0.025;entryY=0.467;entryDx=0;entryDy=0;entryPerimeter=0;" edge="1" parent="1" source="32D1dnVUqQnKbzPbs04d-5" target="32D1dnVUqQnKbzPbs04d-48">
          <mxGeometry relative="1" as="geometry" />
        </mxCell>
        <mxCell id="32D1dnVUqQnKbzPbs04d-5" value="direction_display" style="rounded=0;whiteSpace=wrap;html=1;" vertex="1" parent="1">
          <mxGeometry x="780" y="295" width="120" height="60" as="geometry" />
        </mxCell>
        <mxCell id="32D1dnVUqQnKbzPbs04d-58" style="edgeStyle=orthogonalEdgeStyle;rounded=0;orthogonalLoop=1;jettySize=auto;html=1;exitX=1;exitY=0.25;exitDx=0;exitDy=0;entryX=0.025;entryY=0.5;entryDx=0;entryDy=0;entryPerimeter=0;" edge="1" parent="1" source="32D1dnVUqQnKbzPbs04d-6" target="32D1dnVUqQnKbzPbs04d-56">
          <mxGeometry relative="1" as="geometry" />
        </mxCell>
        <mxCell id="32D1dnVUqQnKbzPbs04d-59" style="edgeStyle=orthogonalEdgeStyle;rounded=0;orthogonalLoop=1;jettySize=auto;html=1;exitX=1;exitY=0.75;exitDx=0;exitDy=0;" edge="1" parent="1" source="32D1dnVUqQnKbzPbs04d-6" target="32D1dnVUqQnKbzPbs04d-57">
          <mxGeometry relative="1" as="geometry" />
        </mxCell>
        <mxCell id="32D1dnVUqQnKbzPbs04d-6" value="speed_display" style="rounded=0;whiteSpace=wrap;html=1;" vertex="1" parent="1">
          <mxGeometry x="730" y="390" width="120" height="60" as="geometry" />
        </mxCell>
        <mxCell id="32D1dnVUqQnKbzPbs04d-11" value="reset&lt;br&gt;button" style="edgeStyle=orthogonalEdgeStyle;rounded=0;orthogonalLoop=1;jettySize=auto;html=1;exitX=1;exitY=0.5;exitDx=0;exitDy=0;entryX=-0.01;entryY=0.144;entryDx=0;entryDy=0;entryPerimeter=0;" edge="1" parent="1" source="32D1dnVUqQnKbzPbs04d-7" target="32D1dnVUqQnKbzPbs04d-1">
          <mxGeometry relative="1" as="geometry" />
        </mxCell>
        <mxCell id="32D1dnVUqQnKbzPbs04d-7" value="KEY[0]" style="text;html=1;strokeColor=none;fillColor=none;align=center;verticalAlign=middle;whiteSpace=wrap;rounded=0;" vertex="1" parent="1">
          <mxGeometry x="70" y="270" width="60" height="30" as="geometry" />
        </mxCell>
        <mxCell id="32D1dnVUqQnKbzPbs04d-12" value="delete&lt;br&gt;button" style="edgeStyle=orthogonalEdgeStyle;rounded=0;orthogonalLoop=1;jettySize=auto;html=1;exitX=1;exitY=0.5;exitDx=0;exitDy=0;entryX=-0.01;entryY=0.361;entryDx=0;entryDy=0;entryPerimeter=0;" edge="1" parent="1" source="32D1dnVUqQnKbzPbs04d-8" target="32D1dnVUqQnKbzPbs04d-1">
          <mxGeometry relative="1" as="geometry" />
        </mxCell>
        <mxCell id="32D1dnVUqQnKbzPbs04d-8" value="KEY[1]" style="text;html=1;strokeColor=none;fillColor=none;align=center;verticalAlign=middle;whiteSpace=wrap;rounded=0;" vertex="1" parent="1">
          <mxGeometry x="70" y="310" width="60" height="30" as="geometry" />
        </mxCell>
        <mxCell id="32D1dnVUqQnKbzPbs04d-13" value="execute&lt;br&gt;button" style="edgeStyle=orthogonalEdgeStyle;rounded=0;orthogonalLoop=1;jettySize=auto;html=1;exitX=1;exitY=0.5;exitDx=0;exitDy=0;entryX=0.01;entryY=0.583;entryDx=0;entryDy=0;entryPerimeter=0;" edge="1" parent="1" source="32D1dnVUqQnKbzPbs04d-9" target="32D1dnVUqQnKbzPbs04d-1">
          <mxGeometry relative="1" as="geometry" />
        </mxCell>
        <mxCell id="32D1dnVUqQnKbzPbs04d-9" value="KEY[2]" style="text;html=1;strokeColor=none;fillColor=none;align=center;verticalAlign=middle;whiteSpace=wrap;rounded=0;" vertex="1" parent="1">
          <mxGeometry x="70" y="350" width="60" height="30" as="geometry" />
        </mxCell>
        <mxCell id="32D1dnVUqQnKbzPbs04d-14" value="save&lt;br&gt;button" style="edgeStyle=orthogonalEdgeStyle;rounded=0;orthogonalLoop=1;jettySize=auto;html=1;exitX=1;exitY=0.5;exitDx=0;exitDy=0;entryX=-0.01;entryY=0.861;entryDx=0;entryDy=0;entryPerimeter=0;" edge="1" parent="1" source="32D1dnVUqQnKbzPbs04d-10" target="32D1dnVUqQnKbzPbs04d-1">
          <mxGeometry relative="1" as="geometry" />
        </mxCell>
        <mxCell id="32D1dnVUqQnKbzPbs04d-10" value="KEY[3]" style="text;html=1;strokeColor=none;fillColor=none;align=center;verticalAlign=middle;whiteSpace=wrap;rounded=0;" vertex="1" parent="1">
          <mxGeometry x="70" y="400" width="60" height="30" as="geometry" />
        </mxCell>
        <mxCell id="32D1dnVUqQnKbzPbs04d-20" value="data_in[4:0}" style="edgeStyle=orthogonalEdgeStyle;rounded=0;orthogonalLoop=1;jettySize=auto;html=1;exitX=1;exitY=0.5;exitDx=0;exitDy=0;entryX=0;entryY=0.5;entryDx=0;entryDy=0;" edge="1" parent="1" source="32D1dnVUqQnKbzPbs04d-19" target="32D1dnVUqQnKbzPbs04d-3">
          <mxGeometry relative="1" as="geometry">
            <mxPoint as="offset" />
          </mxGeometry>
        </mxCell>
        <mxCell id="32D1dnVUqQnKbzPbs04d-19" value="SW[4:0]" style="text;html=1;strokeColor=none;fillColor=none;align=center;verticalAlign=middle;whiteSpace=wrap;rounded=0;" vertex="1" parent="1">
          <mxGeometry x="110" y="510" width="60" height="30" as="geometry" />
        </mxCell>
        <mxCell id="32D1dnVUqQnKbzPbs04d-28" style="edgeStyle=orthogonalEdgeStyle;rounded=0;orthogonalLoop=1;jettySize=auto;html=1;exitX=1;exitY=0.5;exitDx=0;exitDy=0;entryX=0;entryY=0.5;entryDx=0;entryDy=0;" edge="1" parent="1" source="32D1dnVUqQnKbzPbs04d-24" target="32D1dnVUqQnKbzPbs04d-4">
          <mxGeometry relative="1" as="geometry" />
        </mxCell>
        <mxCell id="32D1dnVUqQnKbzPbs04d-29" style="edgeStyle=orthogonalEdgeStyle;rounded=0;orthogonalLoop=1;jettySize=auto;html=1;exitX=1;exitY=0.5;exitDx=0;exitDy=0;entryX=0.25;entryY=0;entryDx=0;entryDy=0;" edge="1" parent="1" source="32D1dnVUqQnKbzPbs04d-24" target="32D1dnVUqQnKbzPbs04d-5">
          <mxGeometry relative="1" as="geometry" />
        </mxCell>
        <mxCell id="32D1dnVUqQnKbzPbs04d-30" style="edgeStyle=orthogonalEdgeStyle;rounded=0;orthogonalLoop=1;jettySize=auto;html=1;exitX=1;exitY=0.5;exitDx=0;exitDy=0;entryX=0.25;entryY=0;entryDx=0;entryDy=0;" edge="1" parent="1" source="32D1dnVUqQnKbzPbs04d-24" target="32D1dnVUqQnKbzPbs04d-6">
          <mxGeometry relative="1" as="geometry" />
        </mxCell>
        <mxCell id="32D1dnVUqQnKbzPbs04d-31" value="timer" style="edgeLabel;html=1;align=center;verticalAlign=middle;resizable=0;points=[];" vertex="1" connectable="0" parent="32D1dnVUqQnKbzPbs04d-30">
          <mxGeometry x="-0.4812" y="-1" relative="1" as="geometry">
            <mxPoint y="-2" as="offset" />
          </mxGeometry>
        </mxCell>
        <mxCell id="32D1dnVUqQnKbzPbs04d-24" value="countdown" style="rounded=0;whiteSpace=wrap;html=1;" vertex="1" parent="1">
          <mxGeometry x="440" y="180" width="180" height="40" as="geometry" />
        </mxCell>
        <mxCell id="32D1dnVUqQnKbzPbs04d-44" value="LEDR[17:0]" style="text;html=1;align=center;verticalAlign=middle;resizable=0;points=[];autosize=1;strokeColor=none;fillColor=none;" vertex="1" parent="1">
          <mxGeometry x="1025" y="185" width="90" height="30" as="geometry" />
        </mxCell>
        <mxCell id="32D1dnVUqQnKbzPbs04d-45" value="HEX0[6:0]" style="text;html=1;align=center;verticalAlign=middle;resizable=0;points=[];autosize=1;strokeColor=none;fillColor=none;" vertex="1" parent="1">
          <mxGeometry x="940" y="270" width="80" height="30" as="geometry" />
        </mxCell>
        <mxCell id="32D1dnVUqQnKbzPbs04d-46" value="HEX1[6:0]" style="text;html=1;align=center;verticalAlign=middle;resizable=0;points=[];autosize=1;strokeColor=none;fillColor=none;" vertex="1" parent="1">
          <mxGeometry x="940" y="295" width="80" height="30" as="geometry" />
        </mxCell>
        <mxCell id="32D1dnVUqQnKbzPbs04d-47" value="HEX2[6:0]" style="text;html=1;align=center;verticalAlign=middle;resizable=0;points=[];autosize=1;strokeColor=none;fillColor=none;" vertex="1" parent="1">
          <mxGeometry x="940" y="320" width="80" height="30" as="geometry" />
        </mxCell>
        <mxCell id="32D1dnVUqQnKbzPbs04d-48" value="HEX3[6:0]" style="text;html=1;align=center;verticalAlign=middle;resizable=0;points=[];autosize=1;strokeColor=none;fillColor=none;" vertex="1" parent="1">
          <mxGeometry x="940" y="347" width="80" height="30" as="geometry" />
        </mxCell>
        <mxCell id="32D1dnVUqQnKbzPbs04d-56" value="HEX5[6:0]" style="text;html=1;align=center;verticalAlign=middle;resizable=0;points=[];autosize=1;strokeColor=none;fillColor=none;" vertex="1" parent="1">
          <mxGeometry x="890" y="390" width="80" height="30" as="geometry" />
        </mxCell>
        <mxCell id="32D1dnVUqQnKbzPbs04d-57" value="HEX6[6:0]" style="text;html=1;align=center;verticalAlign=middle;resizable=0;points=[];autosize=1;strokeColor=none;fillColor=none;" vertex="1" parent="1">
          <mxGeometry x="890" y="420" width="80" height="30" as="geometry" />
        </mxCell>
        <mxCell id="32D1dnVUqQnKbzPbs04d-61" value="" style="edgeStyle=orthogonalEdgeStyle;rounded=0;orthogonalLoop=1;jettySize=auto;html=1;entryX=1;entryY=0.75;entryDx=0;entryDy=0;" edge="1" parent="1" source="32D1dnVUqQnKbzPbs04d-60" target="32D1dnVUqQnKbzPbs04d-3">
          <mxGeometry relative="1" as="geometry" />
        </mxCell>
        <mxCell id="32D1dnVUqQnKbzPbs04d-60" value="CLOCK_50" style="text;html=1;align=center;verticalAlign=middle;resizable=0;points=[];autosize=1;strokeColor=none;fillColor=none;" vertex="1" parent="1">
          <mxGeometry x="650" y="522" width="80" height="30" as="geometry" />
        </mxCell>
        <mxCell id="32D1dnVUqQnKbzPbs04d-63" value="" style="edgeStyle=orthogonalEdgeStyle;rounded=0;orthogonalLoop=1;jettySize=auto;html=1;entryX=0;entryY=0.75;entryDx=0;entryDy=0;" edge="1" parent="1" source="32D1dnVUqQnKbzPbs04d-62" target="32D1dnVUqQnKbzPbs04d-24">
          <mxGeometry relative="1" as="geometry" />
        </mxCell>
        <mxCell id="32D1dnVUqQnKbzPbs04d-62" value="CLOCK_50" style="text;html=1;align=center;verticalAlign=middle;resizable=0;points=[];autosize=1;strokeColor=none;fillColor=none;" vertex="1" parent="1">
          <mxGeometry x="334" y="195" width="80" height="30" as="geometry" />
        </mxCell>
        <mxCell id="32D1dnVUqQnKbzPbs04d-65" value="" style="edgeStyle=orthogonalEdgeStyle;rounded=0;orthogonalLoop=1;jettySize=auto;html=1;entryX=0.011;entryY=0.088;entryDx=0;entryDy=0;entryPerimeter=0;" edge="1" parent="1" source="32D1dnVUqQnKbzPbs04d-64" target="32D1dnVUqQnKbzPbs04d-2">
          <mxGeometry relative="1" as="geometry" />
        </mxCell>
        <mxCell id="32D1dnVUqQnKbzPbs04d-64" value="CLOCK_50" style="text;html=1;align=center;verticalAlign=middle;resizable=0;points=[];autosize=1;strokeColor=none;fillColor=none;" vertex="1" parent="1">
          <mxGeometry x="334" y="265" width="80" height="30" as="geometry" />
        </mxCell>
        <mxCell id="32D1dnVUqQnKbzPbs04d-66" value="" style="triangle;whiteSpace=wrap;html=1;" vertex="1" parent="1">
          <mxGeometry x="440" y="275" width="10" height="10" as="geometry" />
        </mxCell>
        <mxCell id="32D1dnVUqQnKbzPbs04d-67" value="" style="triangle;whiteSpace=wrap;html=1;" vertex="1" parent="1">
          <mxGeometry x="440" y="205" width="10" height="10" as="geometry" />
        </mxCell>
        <mxCell id="32D1dnVUqQnKbzPbs04d-68" value="" style="triangle;whiteSpace=wrap;html=1;rotation=-180;" vertex="1" parent="1">
          <mxGeometry x="610" y="532" width="10" height="10" as="geometry" />
        </mxCell>
      </root>
    </mxGraphModel>
  </diagram>
</mxfile>
